<svg width="9" height="9" viewBox="0 0 9 9" fill="none" xmlns="http://www.w3.org/2000/svg">
<path d="M1.625 0C1.19402 0 0.780698 0.170994 0.475951 0.475365C0.171205 0.779737 0 1.19255 0 1.623V7.36592C0 7.79636 0.171205 8.20918 0.475951 8.51355C0.780698 8.81792 1.19402 8.98892 1.625 8.98892H7.375C7.80598 8.98892 8.2193 8.81792 8.52405 8.51355C8.8288 8.20918 9 7.79636 9 7.36592V1.623C9 1.19255 8.8288 0.779737 8.52405 0.475365C8.2193 0.170994 7.80598 0 7.375 0H1.625ZM0.75 1.623C0.75 1.14059 1.142 0.749076 1.625 0.749076H7.375C7.858 0.749076 8.25 1.14059 8.25 1.623V7.36592C8.25 7.5977 8.15781 7.81998 7.99372 7.98387C7.82962 8.14777 7.60706 8.23984 7.375 8.23984H1.625C1.39294 8.23984 1.17038 8.14777 1.00628 7.98387C0.842187 7.81998 0.75 7.5977 0.75 7.36592V1.623ZM7.14 3.13613C7.17684 3.10184 7.20639 3.0605 7.22689 3.01455C7.24739 2.96861 7.25841 2.91901 7.2593 2.86872C7.26018 2.81843 7.25092 2.76848 7.23206 2.72185C7.2132 2.67521 7.18513 2.63284 7.14952 2.59728C7.11391 2.56171 7.07149 2.53368 7.0248 2.51484C6.9781 2.496 6.92809 2.48675 6.87774 2.48764C6.82739 2.48852 6.77773 2.49953 6.73173 2.52C6.68573 2.54047 6.64433 2.56999 6.61 2.60679L3.4985 5.71096L2.39 4.60432C2.31891 4.53816 2.22489 4.50215 2.12774 4.50386C2.03059 4.50557 1.9379 4.54488 1.86919 4.6135C1.80048 4.68212 1.76113 4.7747 1.75941 4.87173C1.7577 4.96876 1.79376 5.06267 1.86 5.13367L3.2325 6.50498C3.30281 6.57512 3.39812 6.61451 3.4975 6.61451C3.59688 6.61451 3.69219 6.57512 3.7625 6.50498L5.45125 4.82056L7.14 3.13613Z" fill="black"/>
</svg>
