<svg width="9" height="9" viewBox="0 0 9 9" fill="none" xmlns="http://www.w3.org/2000/svg">
<path d="M1.625 0C1.19402 0 0.780698 0.171205 0.475951 0.475951C0.171205 0.780698 0 1.19402 0 1.625V7.375C0 7.80598 0.171205 8.2193 0.475951 8.52405C0.780698 8.8288 1.19402 9 1.625 9H7.375C7.80598 9 8.2193 8.8288 8.52405 8.52405C8.8288 8.2193 9 7.80598 9 7.375V1.625C9 1.19402 8.8288 0.780698 8.52405 0.475951C8.2193 0.171205 7.80598 0 7.375 0H1.625ZM0.75 1.625C0.75 1.142 1.142 0.75 1.625 0.75H7.375C7.858 0.75 8.25 1.142 8.25 1.625V7.375C8.25 7.60706 8.15781 7.82962 7.99372 7.99372C7.82962 8.15781 7.60706 8.25 7.375 8.25H1.625C1.39294 8.25 1.17038 8.15781 1.00628 7.99372C0.842187 7.82962 0.75 7.60706 0.75 7.375V1.625Z" fill="black"/>
</svg>
