<svg width="105" height="32" viewBox="0 0 105 32" fill="none" xmlns="http://www.w3.org/2000/svg">
<path d="M10.912 31.1519C8.41866 31.1519 6.36532 30.7559 4.75199 29.9639C3.13866 29.1719 1.93599 27.9692 1.14399 26.3559C0.381324 24.7425 -9.64105e-06 22.7039 -9.64105e-06 20.2399C-9.64105e-06 17.7759 0.381324 15.7225 1.14399 14.0799C1.93599 12.4079 3.13866 11.1612 4.75199 10.3399C6.36532 9.48919 8.41866 9.06385 10.912 9.06385H20.856V28.3799H14.96V12.8919L16.412 14.1679H10.912C9.70932 14.1679 8.74132 14.3145 8.00799 14.6079C7.27466 14.8719 6.73199 15.4439 6.37999 16.3239C6.05732 17.1745 5.89599 18.4799 5.89599 20.2399C5.89599 21.9119 6.04266 23.1732 6.33599 24.0239C6.65866 24.8452 7.18666 25.3879 7.91999 25.6519C8.65332 25.9159 9.65066 26.0479 10.912 26.0479H25.476V31.1519H10.912ZM25.476 31.1519V26.0479C25.652 26.0479 25.784 26.1065 25.872 26.2239C25.9893 26.3412 26.0773 26.5172 26.136 26.7519C26.224 26.9865 26.2827 27.2652 26.312 27.5879C26.3413 27.8812 26.356 28.2185 26.356 28.5999C26.356 28.9812 26.3413 29.3332 26.312 29.6559C26.2827 29.9785 26.224 30.2572 26.136 30.4919C26.0773 30.6972 25.9893 30.8585 25.872 30.9759C25.784 31.0932 25.652 31.1519 25.476 31.1519ZM4.35599 5.01585V-0.00014472H10.032V5.01585H4.35599ZM12.364 5.01585V-0.00014472H18.04V5.01585H12.364ZM25.4822 31.1519V26.0479H34.8102C36.0715 26.0479 37.2888 25.8132 38.4622 25.3439C39.6355 24.8452 40.7062 24.1999 41.6742 23.4079C42.6715 22.5865 43.5368 21.6919 44.2702 20.7239C45.0328 19.7265 45.6195 18.7145 46.0302 17.6879C46.4702 16.6612 46.6902 15.6932 46.6902 14.7839V11.9679L49.5062 16.6319C47.9808 15.8105 46.4262 15.1945 44.8422 14.7839C43.2582 14.3732 41.7475 14.1679 40.3102 14.1679C38.9022 14.1679 37.3915 14.3732 35.7782 14.7839C34.1942 15.1945 32.6542 15.8105 31.1582 16.6319L33.9742 11.9679V14.7839C33.9742 15.6932 34.1795 16.6612 34.5902 17.6879C35.0302 18.7145 35.6168 19.7265 36.3502 20.7239C37.0835 21.6919 37.9488 22.5865 38.9462 23.4079C39.9435 24.1999 41.0288 24.8452 42.2022 25.3439C43.3755 25.8132 44.5782 26.0479 45.8102 26.0479H54.8742V31.1519H47.6582C45.3702 31.1519 43.2288 30.7852 41.2342 30.0519C39.2395 29.3185 37.4355 28.3505 35.8222 27.1479C34.2088 25.9159 32.8155 24.5812 31.6422 23.1439C30.4982 21.6772 29.6182 20.2252 29.0022 18.7879C28.3862 17.3212 28.0782 15.9865 28.0782 14.7839V12.2759C29.3395 11.5719 30.6742 10.9852 32.0822 10.5159C33.5195 10.0465 34.9422 9.69452 36.3502 9.45985C37.7875 9.19585 39.1075 9.06385 40.3102 9.06385C41.5422 9.06385 42.8622 9.19585 44.2702 9.45985C45.6782 9.69452 47.0862 10.0465 48.4942 10.5159C49.9315 10.9852 51.2808 11.5719 52.5422 12.2759V14.7839C52.5422 15.9865 52.2342 17.3212 51.6182 18.7879C51.0022 20.2252 50.1075 21.6772 48.9342 23.1439C47.7902 24.5812 46.4115 25.9159 44.7982 27.1479C43.1848 28.3505 41.3808 29.3185 39.3862 30.0519C37.3915 30.7852 35.2502 31.1519 32.9622 31.1519H25.4822ZM25.4822 31.1519C25.3062 31.1519 25.1742 31.0932 25.0862 30.9759C24.9688 30.8585 24.8808 30.6972 24.8222 30.4919C24.7342 30.2572 24.6755 29.9785 24.6462 29.6559C24.6168 29.3332 24.6022 28.9812 24.6022 28.5999C24.6022 28.0719 24.6315 27.6319 24.6902 27.2799C24.7488 26.8985 24.8515 26.6052 24.9982 26.3999C25.1155 26.1652 25.2768 26.0479 25.4822 26.0479V31.1519ZM54.8742 31.1519V26.0479C55.0502 26.0479 55.1968 26.1065 55.3142 26.2239C55.4315 26.3412 55.5195 26.5172 55.5782 26.7519C55.6368 26.9865 55.6808 27.2652 55.7102 27.5879C55.7395 27.8812 55.7542 28.2185 55.7542 28.5999C55.7542 28.9812 55.7395 29.3332 55.7102 29.6559C55.6808 29.9785 55.6368 30.2572 55.5782 30.4919C55.5195 30.6972 55.4315 30.8585 55.3142 30.9759C55.1968 31.0932 55.0502 31.1519 54.8742 31.1519Z" fill="#F59E0B"/>
<path d="M65.3888 31.1519V26.0479H70.0088V31.1519H65.3888ZM54.8728 31.1519C54.6968 31.1519 54.5648 31.0932 54.4768 30.9759C54.3595 30.8585 54.2715 30.6972 54.2128 30.4919C54.1248 30.2572 54.0661 29.9785 54.0368 29.6559C54.0075 29.3332 53.9928 28.9812 53.9928 28.5999C53.9928 28.0719 54.0221 27.6319 54.0808 27.2799C54.1395 26.8985 54.2421 26.6052 54.3888 26.3999C54.5061 26.1652 54.6675 26.0479 54.8728 26.0479V31.1519ZM54.8728 31.1519V26.0479H62.9248L59.4928 28.9079V9.06385H65.3888V31.1519H54.8728ZM70.0088 31.1519V26.0479C70.1848 26.0479 70.3315 26.1065 70.4488 26.2239C70.5661 26.3412 70.6541 26.5172 70.7128 26.7519C70.7715 26.9865 70.8155 27.2652 70.8448 27.5879C70.8741 27.8812 70.8888 28.2185 70.8888 28.5999C70.8888 28.9812 70.8741 29.3332 70.8448 29.6559C70.8155 29.9785 70.7715 30.2572 70.7128 30.4919C70.6541 30.6972 70.5661 30.8585 70.4488 30.9759C70.3315 31.0932 70.1848 31.1519 70.0088 31.1519ZM59.4928 5.01585V-0.00014472H65.3888V5.01585H59.4928ZM69.9978 31.1519V26.0479H103.262L98.2898 30.3599V21.1199C98.2898 19.4479 98.0698 18.1132 97.6298 17.1159C97.1898 16.0892 96.5445 15.3412 95.6938 14.8719C94.8725 14.4025 93.8751 14.1679 92.7018 14.1679C91.4405 14.1679 90.2378 14.4172 89.0938 14.9159C87.9791 15.4145 86.9378 16.0599 85.9698 16.8519C85.0018 17.6439 84.1071 18.4945 83.2858 19.4039C82.4645 20.3132 81.7311 21.1932 81.0858 22.0439C80.4405 22.8652 79.8831 23.5692 79.4138 24.1559L78.0938 19.8879C79.2378 18.5092 80.2645 17.2479 81.1738 16.1039C82.0831 14.9599 82.9485 13.9479 83.7698 13.0679C84.6205 12.1879 85.5005 11.4545 86.4098 10.8679C87.3485 10.2812 88.3605 9.84119 89.4458 9.54785C90.5605 9.22519 91.8511 9.06385 93.3178 9.06385C95.2831 9.06385 96.9551 9.40119 98.3338 10.0759C99.7125 10.7212 100.827 11.6159 101.678 12.7599C102.558 13.9039 103.188 15.1945 103.57 16.6319C103.98 18.0692 104.186 19.5652 104.186 21.1199V31.1519H69.9978ZM75.5418 26.0479V9.06385H81.4378V26.0479H75.5418ZM69.9978 31.1519C69.8218 31.1519 69.6898 31.0932 69.6018 30.9759C69.4845 30.8585 69.3965 30.6972 69.3378 30.4919C69.2498 30.2572 69.1911 29.9785 69.1618 29.6559C69.1325 29.3332 69.1178 28.9812 69.1178 28.5999C69.1178 28.0719 69.1471 27.6319 69.2058 27.2799C69.2645 26.8985 69.3671 26.6052 69.5138 26.3999C69.6311 26.1652 69.7925 26.0479 69.9978 26.0479V31.1519Z" fill="#2563EB"/>
</svg>
